<svg width="688" height="448" viewBox="0 0 688 448" fill="none" xmlns="http://www.w3.org/2000/svg">
<path d="M59 30C59 18.9543 67.9543 10 79 10H609C620.046 10 629 18.9543 629 30V406H59V30Z" fill="#E0E2E2"/>
<path d="M61 32C61 20.9543 69.9543 12 81 12H607C618.046 12 627 20.9543 627 32V406H61V32Z" fill="#101111"/>
<path d="M69 41C69 38.7909 70.7909 37 73 37H615C617.209 37 619 38.7909 619 41V398H69V41Z" fill="#00D1B2"/>
<path d="M69 41C69 38.7909 70.7909 37 73 37H615C617.209 37 619 38.7909 619 41V398H69V41Z" fill="url(#paint0_linear)"/>
<path d="M6 406H682V418C682 424.627 676.627 430 670 430H18C11.3726 430 6 424.627 6 418V406Z" fill="#E0E2E2"/>
<path d="M302 406H386V406C386 410.418 382.418 414 378 414H310C305.582 414 302 410.418 302 406V406Z" fill="#B8B9B9"/>
<g filter="url(#filter0_d)">
<path d="M80 62C80 58.6863 82.6863 56 86 56H602C605.314 56 608 58.6863 608 62V382H80V62Z" fill="#23262B"/>
</g>
<path d="M80 62C80 58.6863 82.6863 56 86 56H602C605.314 56 608 58.6863 608 62V84H80V62Z" fill="#1D2024"/>
<circle cx="96" cy="72" r="6" fill="#EE6A5E"/>
<circle cx="130" cy="72" r="6" fill="#61C454"/>
<circle cx="112" cy="72" r="6" fill="#F4BC4E"/>
<path d="M188 184C188 181.791 189.791 180 192 180H210C212.209 180 214 181.791 214 184V184C214 186.209 212.209 188 210 188H192C189.791 188 188 186.209 188 184V184Z" fill="#F19436"/>
<path d="M202 352C202 349.791 203.791 348 206 348H244C246.209 348 248 349.791 248 352V352C248 354.209 246.209 356 244 356H206C203.791 356 202 354.209 202 352V352Z" fill="#F19436"/>
<path d="M188 320C188 317.791 189.791 316 192 316H224C226.209 316 228 317.791 228 320V320C228 322.209 226.209 324 224 324H192C189.791 324 188 322.209 188 320V320Z" fill="#F19436"/>
<path d="M186 368C186 365.791 187.791 364 190 364H242C244.209 364 246 365.791 246 368V368C246 370.209 244.209 372 242 372H190C187.791 372 186 370.209 186 368V368Z" fill="#F19436"/>
<path d="M154 272C154 269.791 155.791 268 158 268H190C192.209 268 194 269.791 194 272V272C194 274.209 192.209 276 190 276H158C155.791 276 154 274.209 154 272V272Z" fill="#F19436"/>
<path d="M96 240C96 237.791 97.7909 236 100 236H132C134.209 236 136 237.791 136 240V240C136 242.209 134.209 244 132 244H100C97.7909 244 96 242.209 96 240V240Z" fill="#F19436"/>
<path d="M168 136C168 133.791 169.791 132 172 132H224C226.209 132 228 133.791 228 136V136C228 138.209 226.209 140 224 140H172C169.791 140 168 138.209 168 136V136Z" fill="#F19436"/>
<path d="M138 120C138 117.791 139.791 116 142 116H174C176.209 116 178 117.791 178 120V120C178 122.209 176.209 124 174 124H142C139.791 124 138 122.209 138 120V120Z" fill="#F19436"/>
<path d="M150 304C150 301.791 151.791 300 154 300H186C188.209 300 190 301.791 190 304V304C190 306.209 188.209 308 186 308H154C151.791 308 150 306.209 150 304V304Z" fill="#F19436"/>
<path d="M206 288C206 285.791 207.791 284 210 284H228C230.209 284 232 285.791 232 288V288C232 290.209 230.209 292 228 292H210C207.791 292 206 290.209 206 288V288Z" fill="#F19436"/>
<path d="M96 288C96 285.791 97.7909 284 100 284H126C128.209 284 130 285.791 130 288V288C130 290.209 128.209 292 126 292H100C97.7909 292 96 290.209 96 288V288Z" fill="#D77976"/>
<path d="M96 304C96 301.791 97.7909 300 100 300H138C140.209 300 142 301.791 142 304V304C142 306.209 140.209 308 138 308H100C97.7909 308 96 306.209 96 304V304Z" fill="#D77976"/>
<path d="M136 336C136 333.791 137.791 332 140 332H166C168.209 332 170 333.791 170 336V336C170 338.209 168.209 340 166 340H140C137.791 340 136 338.209 136 336V336Z" fill="#D77976"/>
<path d="M138 224C138 221.791 139.791 220 142 220H174C176.209 220 178 221.791 178 224V224C178 226.209 176.209 228 174 228H142C139.791 228 138 226.209 138 224V224Z" fill="#D77976"/>
<path d="M144 368C144 365.791 145.791 364 148 364H174C176.209 364 178 365.791 178 368V368C178 370.209 176.209 372 174 372H148C145.791 372 144 370.209 144 368V368Z" fill="#D77976"/>
<path d="M254 368C254 365.791 255.791 364 258 364H276C278.209 364 280 365.791 280 368V368C280 370.209 278.209 372 276 372H258C255.791 372 254 370.209 254 368V368Z" fill="#D77976"/>
<rect x="178" y="252" width="46" height="8" rx="4" fill="#76B5F0"/>
<rect x="198" y="300" width="60" height="8" rx="4" fill="#76B5F0"/>
<rect x="96" y="220" width="34" height="8" rx="4" fill="#76B5F0"/>
<rect x="138" y="284" width="60" height="8" rx="4" fill="#76B5F0"/>
<rect x="120" y="316" width="60" height="8" rx="4" fill="#76B5F0"/>
<rect x="178" y="332" width="60" height="8" rx="4" fill="#76B5F0"/>
<rect x="284" y="284" width="40" height="8" rx="4" fill="#76B5F0"/>
<rect x="96" y="364" width="40" height="8" rx="4" fill="#76B5F0"/>
<rect x="154" y="348" width="40" height="8" rx="4" fill="#76B5F0"/>
<rect x="144" y="236" width="60" height="8" rx="4" fill="#76B5F0"/>
<rect x="96" y="100" width="26" height="8" rx="4" fill="#C597D4"/>
<path d="M178 104C178 101.791 179.791 100 182 100H200C202.209 100 204 101.791 204 104V104C204 106.209 202.209 108 200 108H182C179.791 108 178 106.209 178 104V104Z" fill="#D77976"/>
<path d="M120 184C120 181.791 121.791 180 124 180H176C178.209 180 180 181.791 180 184V184C180 186.209 178.209 188 176 188H124C121.791 188 120 186.209 120 184V184Z" fill="#D77976"/>
<path d="M154 152C154 149.791 155.791 148 158 148H196C198.209 148 200 149.791 200 152V152C200 154.209 198.209 156 196 156H158C155.791 156 154 154.209 154 152V152Z" fill="#D77976"/>
<path d="M120 136C120 133.791 121.791 132 124 132H156C158.209 132 160 133.791 160 136V136C160 138.209 158.209 140 156 140H124C121.791 140 120 138.209 120 136V136Z" fill="#D77976"/>
<path d="M144 256C144 253.791 145.791 252 148 252H166C168.209 252 170 253.791 170 256V256C170 258.209 168.209 260 166 260H148C145.791 260 144 258.209 144 256V256Z" fill="#D77976"/>
<rect x="130" y="100" width="40" height="8" rx="4" fill="#76B5F0"/>
<rect x="96" y="204" width="60" height="8" rx="4" fill="#8498A4"/>
<rect x="164" y="204" width="40" height="8" rx="4" fill="#8498A4"/>
<rect x="222" y="180" width="34" height="8" rx="4" fill="#76B5F0"/>
<rect x="256" y="148" width="46" height="8" rx="4" fill="#76B5F0"/>
<rect x="208" y="148" width="40" height="8" rx="4" fill="#76B5F0"/>
<rect x="178" y="164" width="40" height="8" rx="4" fill="#76B5F0"/>
<rect x="120" y="148" width="26" height="8" rx="4" fill="#C597D4"/>
<rect x="136" y="164" width="34" height="8" rx="4" fill="#C597D4"/>
<rect x="240" y="284" width="34" height="8" rx="4" fill="#C597D4"/>
<rect x="120" y="348" width="26" height="8" rx="4" fill="#C597D4"/>
<rect x="186" y="220" width="26" height="8" rx="4" fill="#C597D4"/>
<rect x="120" y="268" width="26" height="8" rx="4" fill="#C597D4"/>
<rect x="96" y="252" width="40" height="8" rx="4" fill="#C597D4"/>
<rect x="96" y="116" width="34" height="8" rx="4" fill="#C597D4"/>
<circle cx="334" cy="24" r="8" fill="black"/>
<circle cx="358" cy="24" r="4" fill="black"/>
<defs>
<filter id="filter0_d" x="76" y="54" width="540" height="338" filterUnits="userSpaceOnUse" color-interpolation-filters="sRGB">
<feFlood flood-opacity="0" result="BackgroundImageFix"/>
<feColorMatrix in="SourceAlpha" type="matrix" values="0 0 0 0 0 0 0 0 0 0 0 0 0 0 0 0 0 0 127 0"/>
<feOffset dx="2" dy="4"/>
<feGaussianBlur stdDeviation="3"/>
<feColorMatrix type="matrix" values="0 0 0 0 0 0 0 0 0 0 0 0 0 0 0 0 0 0 0.7 0"/>
<feBlend mode="normal" in2="BackgroundImageFix" result="effect1_dropShadow"/>
<feBlend mode="normal" in="SourceGraphic" in2="effect1_dropShadow" result="shape"/>
</filter>
<linearGradient id="paint0_linear" x1="481" y1="37" x2="344" y2="398" gradientUnits="userSpaceOnUse">
<stop stop-color="#008182" stop-opacity="0"/>
<stop offset="1" stop-color="#008182"/>
</linearGradient>
</defs>
</svg>
